<svg xmlns="http://www.w3.org/2000/svg" version="1.1" xmlns:xlink="http://www.w3.org/1999/xlink" xmlns:svgjs="http://svgjs.dev/svgjs" width="1000" height="623" viewBox="0 0 1000 623"><g transform="matrix(1,0,0,1,-0.6060606060606233,0.2522267206477409)"><svg viewBox="0 0 396 247" data-background-color="#ffffff" preserveAspectRatio="xMidYMid meet" height="623" width="1000" xmlns="http://www.w3.org/2000/svg" xmlns:xlink="http://www.w3.org/1999/xlink"><g id="tight-bounds" transform="matrix(1,0,0,1,0.2400000000000091,-0.09999999999999432)"><svg viewBox="0 0 395.52 247.2" height="247.2" width="395.52"><g><svg></svg></g><g><svg viewBox="0 0 395.52 247.2" height="247.2" width="395.52"><g transform="matrix(1,0,0,1,59.01622635834363,37.08)"><svg viewBox="0 0 277.4875472833127 173.04" height="173.04" width="277.4875472833127"><g><svg viewBox="0 0 277.4875472833127 173.04" height="173.04" width="277.4875472833127"><g><svg viewBox="0 0 395.52000000000004 246.6445124116596" height="173.04" width="277.4875472833127"><g transform="matrix(1,0,0,1,0,183.26139353913356)"><svg viewBox="0 0 395.52000000000004 63.38311887252603" height="63.38311887252603" width="395.52000000000004"><g id="textblocktransform"><svg viewBox="0 0 395.52000000000004 63.38311887252603" height="63.38311887252603" width="395.52000000000004" id="textblock"><g><svg viewBox="0 0 395.52000000000004 34.18582564712883" height="34.18582564712883" width="395.52000000000004"><g transform="matrix(1,0,0,1,0,0)"><svg width="395.52000000000004" viewBox="1.95 -28.55 336.08 29.05" height="34.18582564712883" data-palette-color="#202046"><path d="M12 0.5L12 0.5Q9.1 0.5 6.75-0.15 4.4-0.8 2.4-1.8L2.4-1.8 1.95-9.15 2.75-9.15 7.05-3.15Q9.1-2.1 11.5-2.1L11.5-2.1Q13.7-2.1 15.03-2.9 16.35-3.7 16.35-5.25L16.35-5.25Q16.35-6.4 15.75-7.15 15.15-7.9 13.58-8.7 12-9.5 9.1-10.85L9.1-10.85Q6.05-12.25 4.45-14.33 2.85-16.4 2.85-19.25L2.85-19.25Q2.85-21.8 4.4-23.93 5.95-26.05 8.53-27.3 11.1-28.55 14.15-28.55L14.15-28.55Q16.6-28.55 18.75-28.03 20.9-27.5 22.55-26.5L22.55-26.5 23-19.55 22.2-19.55 17.55-25.45Q16.3-25.95 14.5-25.95L14.5-25.95Q12.85-25.95 11.75-25.08 10.65-24.2 10.65-22.65L10.65-22.65Q10.65-21.7 11.18-20.98 11.7-20.25 12.95-19.5 14.2-18.75 16.35-17.7L16.35-17.7Q20.2-15.8 22.05-13.75 23.9-11.7 23.9-8.55L23.9-8.55Q23.9-5.75 22.33-3.73 20.75-1.7 18.05-0.6 15.35 0.5 12 0.5ZM6.1-3.75L5.6-4.2Q5.85-3.95 6.1-3.75L6.1-3.75ZM43.95 0L27.6 0 27.6-0.8 31.4-2.45 31.4-25.55 27.6-27.2 27.6-28 43.95-28 43.95-27.2 40.65-25.55 40.65-15.7 49.5-15.7 49.5-25.55 46.15-27.2 46.15-28 62.45-28 62.45-27.2 58.75-25.55 58.75-2.45 62.45-0.8 62.45 0 46.15 0 46.15-0.8 49.5-2.45 49.5-13.1 40.65-13.1 40.65-2.45 43.95-0.8 43.95 0ZM73.75 0L64.45 0 64.45-0.8 67.05-2.3 78.2-28.25 83.8-28.25 94.7-2.8 97.9-0.8 97.9 0 81.9 0 81.9-0.8 85.5-2.35 82.85-8.75 72.95-8.75 70.3-2.4 73.75-0.8 73.75 0ZM77.9-20.5L74.05-11.35 81.75-11.35 77.9-20.5ZM116.14 0L99.89 0 99.89-0.8 103.69-2.45 103.69-25.55 99.89-27.2 99.89-28 117.94-28Q122.39-28 124.99-26.25 127.59-24.5 127.59-21.4L127.59-21.4Q127.59-19.2 126.29-17.63 124.99-16.05 122.14-15.05L122.14-15.05 129.74-2.5 132.99-0.8 132.99 0 120.54 0 113.89-12.75 112.94-12.75 112.94-2.5 116.14-0.8 116.14 0ZM113.64-25.8L113.64-25.8 112.94-25.8 112.94-15 113.69-15Q116.34-15 117.39-16.55 118.44-18.1 118.44-20.55L118.44-20.55Q118.44-23.1 117.34-24.45 116.24-25.8 113.64-25.8ZM151.74 0L133.99 0 133.99-0.8 137.79-2.45 137.79-25.55 133.99-27.2 133.99-28 151.79-28Q156.79-28 159.84-26.23 162.89-24.45 162.89-20.55L162.89-20.55Q162.89-18.1 161.29-16.3 159.69-14.5 156.94-13.48 154.19-12.45 150.74-12.45L150.74-12.45 147.04-12.45 147.04-2.45 151.74-0.8 151.74 0ZM147.29-25.4L147.04-25.4 147.04-14.7 147.59-14.7Q150.69-14.7 152.14-16.18 153.59-17.65 153.59-20.1L153.59-20.1Q153.59-22.9 152.06-24.15 150.54-25.4 147.29-25.4L147.29-25.4ZM188.59 0L177.89 0 177.89-0.8 181.69-2.5 182.54-25.6 178.79-27.2 178.79-28 192.44-28 199.54-11.6 206.39-28 219.69-28 219.69-27.2 215.94-26.05 216.64-2.5 220.04-0.8 220.04 0 203.79 0 203.79-0.8 207.34-2.45 206.94-21.95 197.59 0.2 194.84 0.2 185.24-22 184.74-2.45 188.59-0.8 188.59 0ZM239.33 0L223.03 0 223.03-0.8 226.38-2.45 226.38-25.55 223.03-27.2 223.03-28 239.33-28 239.33-27.2 235.63-25.55 235.63-2.45 239.33-0.8 239.33 0ZM254.63 0L242.33 0 242.33-0.85 246.13-2.5 246.13-25.55 242.33-27.2 242.33-28 252.73-28 269.18-10.8 269.18-25.55 263.93-27.2 263.93-28 276.13-28 276.13-27.2 272.43-25.55 272.43 0.2 267.88 0.2 249.38-18.95 249.38-2.5 254.63-0.85 254.63 0ZM295.83 0L279.13 0 279.13-0.8 282.93-2.45 282.93-25.55 279.13-27.2 279.13-28 296.13-28Q301.38-28 305.05-26.33 308.73-24.65 310.68-21.78 312.63-18.9 312.63-15.3L312.63-15.3Q312.63-10.9 310.45-7.43 308.28-3.95 304.5-1.98 300.73 0 295.83 0L295.83 0ZM292.68-25.4L292.68-25.4 292.18-25.4 292.18-2.6 293.33-2.6Q298.08-2.6 300.58-5.6 303.08-8.6 303.08-14L303.08-14Q303.08-19.4 300.5-22.4 297.93-25.4 292.68-25.4ZM326.13 0.5L326.13 0.5Q323.23 0.5 320.88-0.15 318.53-0.8 316.53-1.8L316.53-1.8 316.08-9.15 316.88-9.15 321.18-3.15Q323.23-2.1 325.63-2.1L325.63-2.1Q327.83-2.1 329.15-2.9 330.48-3.7 330.48-5.25L330.48-5.25Q330.48-6.4 329.88-7.15 329.28-7.9 327.7-8.7 326.13-9.5 323.23-10.85L323.23-10.85Q320.18-12.25 318.58-14.33 316.98-16.4 316.98-19.25L316.98-19.25Q316.98-21.8 318.53-23.93 320.08-26.05 322.65-27.3 325.23-28.55 328.28-28.55L328.28-28.55Q330.73-28.55 332.88-28.03 335.03-27.5 336.68-26.5L336.68-26.5 337.13-19.55 336.33-19.55 331.68-25.45Q330.43-25.95 328.63-25.95L328.63-25.95Q326.98-25.95 325.88-25.08 324.78-24.2 324.78-22.65L324.78-22.65Q324.78-21.7 325.3-20.98 325.83-20.25 327.08-19.5 328.33-18.75 330.48-17.7L330.48-17.7Q334.33-15.8 336.18-13.75 338.03-11.7 338.03-8.55L338.03-8.55Q338.03-5.75 336.45-3.73 334.88-1.7 332.18-0.6 329.48 0.5 326.13 0.5ZM320.23-3.75L319.73-4.2Q319.98-3.95 320.23-3.75L320.23-3.75Z" opacity="1" transform="matrix(1,0,0,1,0,0)" fill="#202046" class="wordmark-text-0" data-fill-palette-color="primary" id="text-0"></path></svg></g></svg></g><g transform="matrix(1,0,0,1,0,42.25627862260042)"><svg viewBox="0 0 395.52000000000004 21.126840249925618" height="21.126840249925618" width="395.52000000000004"><g transform="matrix(1,0,0,1,0,0)"><svg width="395.52000000000004" viewBox="0.75 -33.1 857.43 45.800000000000004" height="21.126840249925618" data-palette-color="#3886ce"><path d="M9.35-1.25L9.35-1.25Q4.95 2.15 2.9 2.15L2.9 2.15Q1.8 2.15 1.28 1.07 0.75 0 0.75-1.25L0.75-1.25Q0.75-3.65 2.78-8.45 4.8-13.25 6.65-13.25L6.65-13.25Q7.6-13.25 8.28-9.5 8.95-5.75 9.65-4.05L9.65-4.05Q13.05-7.65 19.5-16.05L19.5-16.05Q27.6-26.7 30.25-27.7L30.25-27.7Q31.15-28.05 32.1-28.05 33.05-28.05 33.68-27.65 34.3-27.25 34.3-26.65L34.3-26.65Q34.3-25.8 32.85-25.65L32.85-25.65Q31.1-24.7 27.45-21.05L27.45-21.05Q23.8-17.5 21.6-14.4L21.6-14.4Q16.25-6.95 10.6-2.25L10.6-2.25Q13.4 1.9 19.4 1.9L19.4 1.9Q20.05 1.9 21.35 1.8L21.35 1.8Q35.25 0.5 41.05-10.25L41.05-10.25Q43.4-14.55 43.4-18.75 43.4-22.95 40.35-26.3L40.35-26.3Q37.9-29.05 35.02-29.7 32.15-30.35 29.15-30.35L29.15-30.35Q21.45-30.35 14.95-26.8L14.95-26.8Q8.1-23.05 8.1-18.4L8.1-18.4Q8.1-17.15 8.78-16.35 9.45-15.55 9.7-15.45L9.7-15.45 9.4-15.45Q8.1-15.7 7.1-16.75L7.1-16.75Q6-18.05 6-19.5L6-19.5Q6-24.5 12.28-28.1 18.55-31.7 27-31.7L27-31.7Q30.9-31.7 35-30.8 39.1-29.9 42.45-26.5L42.45-26.5Q46.3-22.5 46.3-17.45L46.3-17.45Q46.3-13.7 44.1-9.7L44.1-9.7Q40.3-2.8 32.75 0.4L32.75 0.4Q26.7 2.95 19.7 2.95 12.7 2.95 9.35-1.25ZM2.55-1.45L2.55-1.45Q2.55 0.1 3.15 1.25L3.15 1.25Q5.3 0.3 8.35-2.7L8.35-2.7Q6.9-5.1 6.53-6.48 6.15-7.85 6-10.1L6-10.1Q2.55-5.15 2.55-1.45ZM9.7-15.45L9.7-15.45Q9.75-15.45 9.8-15.5L9.8-15.5Q9.8-15.4 9.78-15.4 9.75-15.4 9.7-15.45ZM80.87-10.6L80.87-10.6Q80.87-8.85 77.52-4.75L77.52-4.75Q73.57 0.1 70.77 0.1L70.77 0.1 69.97 0.1Q68.67 0.1 67.92-1.25L67.92-1.25Q67.32-2.2 67.32-3.35L67.32-3.35Q67.32-6.35 71.69-11.78 76.07-17.2 78.77-17.2L78.77-17.2Q81.32-17.2 81.32-14.5L81.32-14.5Q81.32-13.8 81.07-12.7L81.07-12.7Q81.12-12.55 82.02-12.55 82.92-12.55 84.77-13.5L84.77-13.5Q84.72-12.65 80.82-11.05L80.82-11.05Q80.87-10.85 80.87-10.6ZM77.62-13.2L77.62-13.2Q75.92-13.2 72.79-9.2 69.67-5.2 69.67-3.3 69.67-1.4 70.87-1.4L70.87-1.4Q73.02-1.4 76.32-5.3 79.62-9.2 79.62-10.9L79.62-10.9Q78.82-11.35 77.62-13.2ZM148.35-16.1L148.35-16.1 155.55-16.2Q155.7-16.1 155.7-16.05L155.7-16.05Q155.7-15.6 149.47-14.8 143.25-14 142.75-13.85L142.75-13.85Q141.8-13 139.25-8.78 136.7-4.55 136.7-2.6L136.7-2.6Q136.7-0.75 139.25-0.75L139.25-0.75Q140.45-0.75 142.4-1.5 144.35-2.25 145.4-2.9L145.4-2.9Q148.2-4.65 151.4-8.05L151.4-8.05Q152.1-8.75 152.35-8.75L152.35-8.75Q152.5-8.75 152.5-8.45 152.5-8.15 151.75-7.25L151.75-7.25Q149.15-4.05 145.9-2.1L145.9-2.1Q142 0.3 138.45 0.3L138.45 0.3Q136.9 0.3 135.92-0.38 134.95-1.05 134.95-3.1 134.95-5.15 136.75-8.72 138.55-12.3 139.5-14.05L139.5-14.05Q138.8-13.9 138.3-13.9L138.3-13.9Q136.85-13.9 136.85-15.05L136.85-15.05Q136.85-15.9 138.05-16.25L138.05-16.25Q138.2-16.25 138.5-16.3L138.5-16.3 141.4-16.3Q142.3-17.45 143.45-18.95L143.45-18.95Q144.85-20.75 145.35-20.75 145.85-20.75 146.6-20.35 147.35-19.95 147.35-19.4 147.35-18.85 144.95-16.15L144.95-16.15Q146.25-16.1 148.35-16.1ZM174.46 0.65L174.46 0.65Q173.91 0.65 173.46 0.5L173.46 0.5Q170.26-0.4 170.26-3.1L170.26-3.1Q170.26-6.6 174.66-11.2 179.06-15.8 182.56-15.8L182.56-15.8Q183.71-15.8 184.44-15.18 185.16-14.55 185.16-13.65L185.16-13.65Q185.16-10.85 180.94-8.3 176.71-5.75 174.06-5.75L174.06-5.75Q173.66-5.75 173.36-5.85L173.36-5.85Q172.61-4.5 172.61-3L172.61-3Q172.61-0.4 175.09-0.4 177.56-0.4 181.51-3.75L181.51-3.75Q184.56-6.2 186.71-8.95L186.71-8.95Q187.16-9.55 187.49-9.55 187.81-9.55 187.81-9.25 187.81-8.95 187.41-8.4L187.41-8.4Q184.71-4.85 180.91-2.1 177.11 0.65 174.46 0.65ZM183.91-13.75L183.91-13.75Q183.91-14.35 182.64-14.35 181.36-14.35 179.01-12.4L179.01-12.4Q175.86-9.8 174.11-6.95L174.11-6.95Q174.41-6.85 174.76-6.85L174.76-6.85Q176.66-6.85 179.84-8.88 183.01-10.9 183.81-13.3L183.81-13.3Q183.91-13.55 183.91-13.75ZM217.33-1.8L215.73-0.75Q214.28 0.1 212.15 0.1 210.03 0.1 208.9-1.3 207.78-2.7 206.98-5.75L206.98-5.75Q206.08-4.85 205.73-4.85L205.73-4.85Q205.48-4.85 205.48-5.2 205.48-5.55 205.73-5.8L205.73-5.8Q207.38-7.85 211.33-11.7L211.33-11.7 217.63-17.6Q220.33-20.15 220.83-20.15L220.83-20.15Q222.43-20.15 222.43-18.95L222.43-18.95Q222.43-18.35 221.95-17.78 221.48-17.2 221.25-16.88 221.03-16.55 220.78-16.25L220.78-16.25Q219.88-14.7 218.95-9.85 218.03-5 217.53-3.1L217.53-3.1Q221.68-3.15 226.08-8.5L226.08-8.5Q226.58-9 226.83-9 227.08-9 227.08-8.68 227.08-8.35 226.63-7.8L226.63-7.8Q223.73-4.4 221.23-3.05L221.23-3.05Q219.73-2.3 217.33-1.8L217.33-1.8ZM208.98-6.3L208.98-6.3Q208.98-4.6 210.1-3.53 211.23-2.45 212.63-2.45 214.03-2.45 214.78-3L214.78-3Q215.78-3.55 216.75-7.6 217.73-11.65 217.93-14.75L217.93-14.75 218.13-16.45Q215.38-14.4 212.25-11.15 209.13-7.9 209.03-6.85L209.03-6.85Q208.98-6.55 208.98-6.3ZM259.29-16.1L259.29-16.1 266.49-16.2Q266.64-16.1 266.64-16.05L266.64-16.05Q266.64-15.6 260.42-14.8 254.19-14 253.69-13.85L253.69-13.85Q252.74-13 250.19-8.78 247.64-4.55 247.64-2.6L247.64-2.6Q247.64-0.75 250.19-0.75L250.19-0.75Q251.39-0.75 253.34-1.5 255.29-2.25 256.34-2.9L256.34-2.9Q259.14-4.65 262.34-8.05L262.34-8.05Q263.04-8.75 263.29-8.75L263.29-8.75Q263.44-8.75 263.44-8.45 263.44-8.15 262.69-7.25L262.69-7.25Q260.09-4.05 256.84-2.1L256.84-2.1Q252.94 0.3 249.39 0.3L249.39 0.3Q247.84 0.3 246.87-0.38 245.89-1.05 245.89-3.1 245.89-5.15 247.69-8.72 249.49-12.3 250.44-14.05L250.44-14.05Q249.74-13.9 249.24-13.9L249.24-13.9Q247.79-13.9 247.79-15.05L247.79-15.05Q247.79-15.9 248.99-16.25L248.99-16.25Q249.14-16.25 249.44-16.3L249.44-16.3 252.34-16.3Q253.24-17.45 254.39-18.95L254.39-18.95Q255.79-20.75 256.29-20.75 256.79-20.75 257.54-20.35 258.29-19.95 258.29-19.4 258.29-18.85 255.89-16.15L255.89-16.15Q257.19-16.1 259.29-16.1ZM334.03-22.25L334.03-22.25Q336.83-22.25 336.83-21.1L336.83-21.1Q336.83-20.8 336.63-20.6L336.63-20.6Q335.98-19.5 333.8-19.5 331.63-19.5 329.88-20.8L329.88-20.8Q327.18-20 323.58-17.4L323.58-17.4Q317.98-13.25 317.98-9.25L317.98-9.25Q317.98-4.8 324.03-4.3L324.03-4.3Q325.23-11.7 331.23-15.4L331.23-15.4Q333.18-16.65 335.43-17.18 337.68-17.7 338.5-17.88 339.33-18.05 341.3-18.38 343.28-18.7 343.58-18.75L343.58-18.75Q348.23-19.55 349.55-20.55 350.88-21.55 350.88-22.45L350.88-22.45Q350.88-22.7 350.8-23 350.73-23.3 350.93-23.35 351.13-23.4 351.38-23.2L351.38-23.2Q351.78-22.65 351.78-21.85 351.78-21.05 350.78-19.9L350.78-19.9Q349.28-18.4 346.63-17.8L346.63-17.8Q345.63-17.55 343.95-17.23 342.28-16.9 341.53-16.7L341.53-16.7Q342.48-15.8 342.48-14L342.48-14Q342.48-10.3 338.08-6.75L338.08-6.75Q333.23-2.85 325.08-2.85L325.08-2.85Q325.03-2.45 325.03-1.6L325.03-1.6Q325.03 1.9 327.35 3.93 329.68 5.95 333.23 5.95L333.23 5.95Q334.48 5.95 335.38 5.13 336.28 4.3 336.28 3.25L336.28 3.25Q336.28 2.9 336.08 2.45 335.88 2 336.45 2 337.03 2 337.03 3.33 337.03 4.65 335.88 5.68 334.73 6.7 333.23 6.7L333.23 6.7Q329.33 6.7 326.73 4.55L326.73 4.55Q323.78 2.2 323.78-1.6L323.78-1.6Q323.78-2.45 323.83-2.9L323.83-2.9Q319.48-3.3 317.23-5.1L317.23-5.1Q315.18-6.85 315.18-8.95L315.18-8.95Q315.18-13.8 322.58-18.2L322.58-18.2Q326.03-20.3 329.33-21.35L329.33-21.35Q327.93-22.9 327.93-25.4L327.93-25.4Q327.93-26.7 328.53-27.55L328.53-27.55Q330.18-29.9 333.53-31.3L333.53-31.3Q337.48-33.05 341.53-33.05L341.53-33.05Q346.88-33.05 346.78-29.7L346.78-29.7Q346.68-28.25 345.55-27.18 344.43-26.1 343.08-26.1 341.73-26.1 341.73-26.8L341.73-26.8Q341.73-27.3 342.38-27.3L342.38-27.3 343.23-27.15Q343.93-27.15 344.6-28 345.28-28.85 345.28-29.7L345.28-29.7Q345.28-31.05 343.73-31.65L343.73-31.65Q342.73-32 341.83-32L341.83-32Q337.63-32 334.83-30.25 332.03-28.5 330.73-26.35L330.73-26.35Q329.98-25.1 329.98-23.75 329.98-22.4 330.58-21.7L330.58-21.7Q332.53-22.25 334.03-22.25ZM340.83-14.35L340.83-14.35Q340.83-16.55 338.93-16.55L338.93-16.55Q338.33-16.55 336.48-16.1L336.48-16.1Q326.83-12.5 325.23-4.25L325.23-4.25Q326.33-4.25 327.43-4.4L327.43-4.4Q333.88-5.1 337.68-8.5L337.68-8.5Q340.83-11.35 340.83-14.35ZM335.33-20.95L335.33-20.95Q335.33-21.4 334-21.4 332.68-21.4 331.18-21.1L331.18-21.1Q332.43-20.3 333.88-20.3 335.33-20.3 335.33-20.95ZM418.66-16.1L418.66-16.1 425.86-16.2Q426.01-16.1 426.01-16.05L426.01-16.05Q426.01-15.6 419.78-14.8 413.56-14 413.06-13.85L413.06-13.85Q412.11-13 409.56-8.78 407.01-4.55 407.01-2.6L407.01-2.6Q407.01-0.75 409.56-0.75L409.56-0.75Q410.76-0.75 412.71-1.5 414.66-2.25 415.71-2.9L415.71-2.9Q418.51-4.65 421.71-8.05L421.71-8.05Q422.41-8.75 422.66-8.75L422.66-8.75Q422.81-8.75 422.81-8.45 422.81-8.15 422.06-7.25L422.06-7.25Q419.46-4.05 416.21-2.1L416.21-2.1Q412.31 0.3 408.76 0.3L408.76 0.3Q407.21 0.3 406.23-0.38 405.26-1.05 405.26-3.1 405.26-5.15 407.06-8.72 408.86-12.3 409.81-14.05L409.81-14.05Q409.11-13.9 408.61-13.9L408.61-13.9Q407.16-13.9 407.16-15.05L407.16-15.05Q407.16-15.9 408.36-16.25L408.36-16.25Q408.51-16.25 408.81-16.3L408.81-16.3 411.71-16.3Q412.61-17.45 413.76-18.95L413.76-18.95Q415.16-20.75 415.66-20.75 416.16-20.75 416.91-20.35 417.66-19.95 417.66-19.4 417.66-18.85 415.26-16.15L415.26-16.15Q416.56-16.1 418.66-16.1ZM444.77 0.65L444.77 0.65Q444.22 0.65 443.77 0.5L443.77 0.5Q440.57-0.4 440.57-3.1L440.57-3.1Q440.57-6.6 444.97-11.2 449.37-15.8 452.87-15.8L452.87-15.8Q454.02-15.8 454.75-15.18 455.47-14.55 455.47-13.65L455.47-13.65Q455.47-10.85 451.25-8.3 447.02-5.75 444.37-5.75L444.37-5.75Q443.97-5.75 443.67-5.85L443.67-5.85Q442.92-4.5 442.92-3L442.92-3Q442.92-0.4 445.4-0.4 447.87-0.4 451.82-3.75L451.82-3.75Q454.87-6.2 457.02-8.95L457.02-8.95Q457.47-9.55 457.8-9.55 458.12-9.55 458.12-9.25 458.12-8.95 457.72-8.4L457.72-8.4Q455.02-4.85 451.22-2.1 447.42 0.65 444.77 0.65ZM454.22-13.75L454.22-13.75Q454.22-14.35 452.95-14.35 451.67-14.35 449.32-12.4L449.32-12.4Q446.17-9.8 444.42-6.95L444.42-6.95Q444.72-6.85 445.07-6.85L445.07-6.85Q446.97-6.85 450.15-8.88 453.32-10.9 454.12-13.3L454.12-13.3Q454.22-13.55 454.22-13.75ZM487.64-1.8L486.04-0.75Q484.59 0.1 482.46 0.1 480.34 0.1 479.21-1.3 478.09-2.7 477.29-5.75L477.29-5.75Q476.39-4.85 476.04-4.85L476.04-4.85Q475.79-4.85 475.79-5.2 475.79-5.55 476.04-5.8L476.04-5.8Q477.69-7.85 481.64-11.7L481.64-11.7 487.94-17.6Q490.64-20.15 491.14-20.15L491.14-20.15Q492.74-20.15 492.74-18.95L492.74-18.95Q492.74-18.35 492.26-17.78 491.79-17.2 491.56-16.88 491.34-16.55 491.09-16.25L491.09-16.25Q490.19-14.7 489.26-9.85 488.34-5 487.84-3.1L487.84-3.1Q491.99-3.15 496.39-8.5L496.39-8.5Q496.89-9 497.14-9 497.39-9 497.39-8.68 497.39-8.35 496.94-7.8L496.94-7.8Q494.04-4.4 491.54-3.05L491.54-3.05Q490.04-2.3 487.64-1.8L487.64-1.8ZM479.29-6.3L479.29-6.3Q479.29-4.6 480.41-3.53 481.54-2.45 482.94-2.45 484.34-2.45 485.09-3L485.09-3Q486.09-3.55 487.06-7.6 488.04-11.65 488.24-14.75L488.24-14.75 488.44-16.45Q485.69-14.4 482.56-11.15 479.44-7.9 479.34-6.85L479.34-6.85Q479.29-6.55 479.29-6.3ZM529.61-16.1L529.61-16.1 536.81-16.2Q536.96-16.1 536.96-16.05L536.96-16.05Q536.96-15.6 530.73-14.8 524.51-14 524.01-13.85L524.01-13.85Q523.06-13 520.51-8.78 517.96-4.55 517.96-2.6L517.96-2.6Q517.96-0.75 520.51-0.75L520.51-0.75Q521.71-0.75 523.66-1.5 525.61-2.25 526.66-2.9L526.66-2.9Q529.46-4.65 532.66-8.05L532.66-8.05Q533.36-8.75 533.61-8.75L533.61-8.75Q533.76-8.75 533.76-8.45 533.76-8.15 533.01-7.25L533.01-7.25Q530.41-4.05 527.16-2.1L527.16-2.1Q523.26 0.3 519.71 0.3L519.71 0.3Q518.16 0.3 517.18-0.38 516.21-1.05 516.21-3.1 516.21-5.15 518.01-8.72 519.81-12.3 520.76-14.05L520.76-14.05Q520.06-13.9 519.56-13.9L519.56-13.9Q518.11-13.9 518.11-15.05L518.11-15.05Q518.11-15.9 519.31-16.25L519.31-16.25Q519.46-16.25 519.76-16.3L519.76-16.3 522.66-16.3Q523.56-17.45 524.71-18.95L524.71-18.95Q526.11-20.75 526.61-20.75 527.11-20.75 527.86-20.35 528.61-19.95 528.61-19.4 528.61-18.85 526.21-16.15L526.21-16.15Q527.51-16.1 529.61-16.1ZM601.64 12.7L601.64 12.7Q599.74 12.7 597.91 11.35 596.09 10 596.09 8.35L596.09 8.35Q596.09 7.3 597.14 7.3L597.14 7.3Q597.39 7.3 597.89 7.4L597.89 7.4Q598.49 9.5 598.89 10.25L598.89 10.25Q599.74 11.6 601.79 11.6L601.79 11.6Q607.94 11.6 616.89-5.2L616.89-5.2 625.89-21.25Q616.24-10.95 612.21-6.93 608.19-2.9 606.69-2L606.69-2Q603.69-0.2 601.74-0.2L601.74-0.2Q598.89-0.2 598.89-3.55L598.89-3.55Q598.89-7.55 602.29-11.8L602.29-11.8Q602.54-12.1 604.41-14.38 606.29-16.65 608.81-19.8 611.34-22.95 613.01-25.88 614.69-28.8 614.69-29.98 614.69-31.15 613.99-31.5L613.99-31.5Q612.54-32.25 610.69-32.25L610.69-32.25Q605.39-32.25 596.04-25.85L596.04-25.85Q592.14-23.2 589.84-19.7 587.54-16.2 587.54-13.25 587.54-10.3 590.39-9.55L590.39-9.55Q591.29-9.3 592.14-9.3L592.14-9.3Q594.69-9.3 597.79-11.5L597.79-11.5Q601.44-13.95 601.89-14.1L601.89-14.1Q601.39-12.25 597.94-10.05L597.94-10.05Q594.14-7.7 590.84-7.7L590.84-7.7Q590.39-7.7 589.16-7.88 587.94-8.05 586.74-9.7 585.54-11.35 585.54-13.7L585.54-13.7Q585.54-20.5 595.49-27.6L595.49-27.6Q598.39-29.7 603.14-31.4 607.89-33.1 610.81-33.1 613.74-33.1 615.26-32.18 616.79-31.25 616.79-29.23 616.79-27.2 613.99-22.93 611.19-18.65 605.14-11.3L605.14-11.3Q603.89-9.85 602.84-7.53 601.79-5.2 601.79-3.83 601.79-2.45 602.86-2.45 603.94-2.45 606.09-4L606.09-4Q612.19-8.35 618.26-14.55 624.34-20.75 627.19-24.95L627.19-24.95Q629.24-27.9 631.54-27.9L631.54-27.9Q632.34-27.9 632.34-27.4L632.34-27.4Q632.34-27.3 632.24-27L632.24-27Q625.94-16 615.09 2.2L615.09 2.2Q611.89 7.45 608.26 10.08 604.64 12.7 601.64 12.7ZM663.75-10.6L663.75-10.6Q663.75-8.85 660.4-4.75L660.4-4.75Q656.45 0.1 653.65 0.1L653.65 0.1 652.85 0.1Q651.55 0.1 650.8-1.25L650.8-1.25Q650.2-2.2 650.2-3.35L650.2-3.35Q650.2-6.35 654.58-11.78 658.95-17.2 661.65-17.2L661.65-17.2Q664.2-17.2 664.2-14.5L664.2-14.5Q664.2-13.8 663.95-12.7L663.95-12.7Q664-12.55 664.9-12.55 665.8-12.55 667.65-13.5L667.65-13.5Q667.6-12.65 663.7-11.05L663.7-11.05Q663.75-10.85 663.75-10.6ZM660.5-13.2L660.5-13.2Q658.8-13.2 655.68-9.2 652.55-5.2 652.55-3.3 652.55-1.4 653.75-1.4L653.75-1.4Q655.9-1.4 659.2-5.3 662.5-9.2 662.5-10.9L662.5-10.9Q661.7-11.35 660.5-13.2ZM700.52 0.3L700.52 0.3Q700.27 0.35 699.44 0.35 698.62 0.35 697.79-0.3 696.97-0.95 696.97-1.98 696.97-3 697.34-4.25 697.72-5.5 697.87-6.15L697.87-6.15Q692.12 0.55 688.87 0.55L688.87 0.55Q686.82 0.55 686.62-2L686.62-2Q686.62-2.2 686.62-2.35L686.62-2.35Q686.62-4.5 689.22-8.15L689.22-8.15Q687.77-6.85 686.27-5.15L686.27-5.15Q686.07-4.95 685.77-4.95L685.77-4.95Q685.57-4.95 685.57-5.2 685.57-5.45 686.02-6.05L686.02-6.05 692.92-14.15Q694.22-15.65 695.57-15.65 696.92-15.65 696.92-14.75L696.92-14.75Q696.92-14.4 696.62-14.1L696.62-14.1Q694.62-12.25 691.59-7.95 688.57-3.65 688.57-1.6L688.57-1.6Q688.57-0.7 689.17-0.7L689.17-0.7Q691.27-0.7 695.27-4.85L695.27-4.85Q696.67-6.25 700.47-11.03 704.27-15.8 705.47-15.8L705.47-15.8Q707.27-15.8 707.27-14.4L707.27-14.4Q707.27-13.9 705.17-11.5L705.17-11.5Q702.32-8.05 700.82-5.88 699.32-3.7 699.32-2.35 699.32-1 700.07-1L700.07-1Q700.42-1 700.87-1.2L700.87-1.2Q704.32-2.7 709.12-8.2L709.12-8.2Q709.42-8.55 709.72-8.55 710.02-8.55 710.02-8.22 710.02-7.9 709.67-7.5L709.67-7.5Q707.52-5 704.62-2.48 701.72 0.05 700.52 0.3ZM740.33-1.8L738.73-0.75Q737.28 0.1 735.16 0.1 733.03 0.1 731.91-1.3 730.78-2.7 729.98-5.75L729.98-5.75Q729.08-4.85 728.73-4.85L728.73-4.85Q728.48-4.85 728.48-5.2 728.48-5.55 728.73-5.8L728.73-5.8Q730.38-7.85 734.33-11.7L734.33-11.7 740.63-17.6Q743.33-20.15 743.83-20.15L743.83-20.15Q745.43-20.15 745.43-18.95L745.43-18.95Q745.43-18.35 744.96-17.78 744.48-17.2 744.26-16.88 744.03-16.55 743.78-16.25L743.78-16.25Q742.88-14.7 741.96-9.85 741.03-5 740.53-3.1L740.53-3.1Q744.68-3.15 749.08-8.5L749.08-8.5Q749.58-9 749.83-9 750.08-9 750.08-8.68 750.08-8.35 749.63-7.8L749.63-7.8Q746.73-4.4 744.23-3.05L744.23-3.05Q742.73-2.3 740.33-1.8L740.33-1.8ZM731.98-6.3L731.98-6.3Q731.98-4.6 733.11-3.53 734.23-2.45 735.63-2.45 737.03-2.45 737.78-3L737.78-3Q738.78-3.55 739.76-7.6 740.73-11.65 740.93-14.75L740.93-14.75 741.13-16.45Q738.38-14.4 735.26-11.15 732.13-7.9 732.03-6.85L732.03-6.85Q731.98-6.55 731.98-6.3ZM771.8 0.65L771.8 0.65Q771.25 0.65 770.8 0.5L770.8 0.5Q767.6-0.4 767.6-3.1L767.6-3.1Q767.6-6.6 772-11.2 776.4-15.8 779.9-15.8L779.9-15.8Q781.05-15.8 781.77-15.18 782.5-14.55 782.5-13.65L782.5-13.65Q782.5-10.85 778.27-8.3 774.05-5.75 771.4-5.75L771.4-5.75Q771-5.75 770.7-5.85L770.7-5.85Q769.95-4.5 769.95-3L769.95-3Q769.95-0.4 772.42-0.4 774.9-0.4 778.85-3.75L778.85-3.75Q781.9-6.2 784.05-8.95L784.05-8.95Q784.5-9.55 784.82-9.55 785.15-9.55 785.15-9.25 785.15-8.95 784.75-8.4L784.75-8.4Q782.05-4.85 778.25-2.1 774.45 0.65 771.8 0.65ZM781.25-13.75L781.25-13.75Q781.25-14.35 779.97-14.35 778.7-14.35 776.35-12.4L776.35-12.4Q773.2-9.8 771.45-6.95L771.45-6.95Q771.75-6.85 772.1-6.85L772.1-6.85Q774-6.85 777.17-8.88 780.35-10.9 781.15-13.3L781.15-13.3Q781.25-13.55 781.25-13.75ZM805.82-2.5Q805.82-1 807.47-1 809.12-1 811.72-2.75 814.32-4.5 816.77-7.5L816.77-7.5Q817.37-8.3 817.72-8.3 818.07-8.3 818.07-8L818.07-8Q818.07-7.7 816.02-5.4L816.02-5.4Q811.02 0.1 807.67 0.1L807.67 0.1Q806.02 0.1 804.87-0.68 803.72-1.45 803.72-3.08 803.72-4.7 804.57-6.85L804.57-6.85Q806.02-10.25 809.22-15.4L809.22-15.4Q815.07-24.9 817.52-24.9L817.52-24.9Q818.02-24.9 818.54-24.53 819.07-24.15 819.12-23.7L819.12-23.7Q817.97-22.15 814.69-17.75 811.42-13.35 810.17-11.43 808.92-9.5 808.29-8.55 807.67-7.6 807.37-7.08 807.07-6.55 806.67-5.7L806.67-5.7Q805.82-4 805.82-2.5ZM858.18-24.45L858.18-24.45Q858.18-22.9 857.28-22.9L857.28-22.9Q857.03-22.9 856.78-23.3L856.78-23.3Q856.33-24.1 855.28-24.1L855.28-24.1Q852.98-24.1 850.98-20.8L850.98-20.8Q850.58-20.15 848.48-16.1L848.48-16.1 849.08-16.1Q854.53-16.1 856.33-16.25L856.33-16.25Q856.53-16.2 856.53-16.05L856.53-16.05Q856.53-15.65 852.98-14.95L852.98-14.95Q849.63-14.4 847.48-14L847.48-14Q845.93-10.8 843.73-6.4L843.73-6.4Q839.23 2 837.78 4.05L837.78 4.05Q833.43 10.25 829.28 10.25L829.28 10.25Q827.83 10.25 826.76 9.03 825.68 7.8 825.63 6.3L825.63 6.3Q825.78 5.7 826.08 5.7L826.08 5.7Q826.23 5.7 826.28 6.05L826.28 6.05Q826.58 7.35 827.28 8.05 827.98 8.75 828.73 8.75L828.73 8.75Q832.98 8.75 836.48 3.5L836.48 3.5Q838.48 0.5 841.93-7.3L841.93-7.3 844.63-13.8Q839.63-13.85 839.63-15L839.63-15Q839.63-15.5 840.11-15.85 840.58-16.2 840.93-16.2L840.93-16.2 845.63-16.1Q850.53-27 854.63-27L854.63-27Q856.18-27 857.78-25.5L857.78-25.5Q858.18-25.1 858.18-24.45Z" opacity="1" transform="matrix(1,0,0,1,0,0)" fill="#3886ce" class="slogan-text-1" data-fill-palette-color="secondary" id="text-1"></path></svg></g></svg></g></svg></g></svg></g><g transform="matrix(1,0,0,1,118.22525955010376,0)"><svg viewBox="0 0 159.06948089979252 175.19094056366197" height="175.19094056366197" width="159.06948089979252"><g><svg xmlns="http://www.w3.org/2000/svg" xmlns:xlink="http://www.w3.org/1999/xlink" version="1.1" x="0" y="0" viewBox="9.141 5 81.71799999999999 90" enable-background="new 0 0 100 100" xml:space="preserve" height="175.19094056366197" width="159.06948089979252" class="icon-icon-0" data-fill-palette-color="accent" id="icon-0"><g fill="#111010" data-fill-palette-color="accent"><polygon fill-rule="evenodd" clip-rule="evenodd" fill="#111010" points="78.63,19.279 68.279,25.263 80.564,31.361 79.789,44.559    89.886,38.248 90.844,25.131 90.859,25.122  " data-fill-palette-color="accent"></polygon><polygon fill-rule="evenodd" clip-rule="evenodd" fill="#111010" points="64.908,23.59 75.106,17.635 76.009,18.026 63.567,12.082    53.203,17.781  " data-fill-palette-color="accent"></polygon><polygon fill-rule="evenodd" clip-rule="evenodd" fill="#111010" points="49.489,15.938 59.995,10.375 48.745,5 38.213,10.568    38.451,10.459  " data-fill-palette-color="accent"></polygon><polygon fill-rule="evenodd" clip-rule="evenodd" fill="#111010" points="46.005,17.782 34.948,12.295 24.405,17.868    35.197,23.503  " data-fill-palette-color="accent"></polygon><polygon fill-rule="evenodd" clip-rule="evenodd" fill="#111010" points="20.357,31.361 31.656,25.378 20.842,19.752 9.158,25.929    9.141,25.919 9.684,38.929 20.688,45.145  " data-fill-palette-color="accent"></polygon><polygon fill-rule="evenodd" clip-rule="evenodd" fill="#111010" points="20.758,48.072 9.803,41.801 10.337,54.63 21.067,60.989     " data-fill-palette-color="accent"></polygon><polygon fill-rule="evenodd" clip-rule="evenodd" fill="#111010" points="21.159,64.756 10.496,58.46 10.999,70.512 21.938,77.247    21.449,76.906  " data-fill-palette-color="accent"></polygon><polygon fill-rule="evenodd" clip-rule="evenodd" fill="#111010" points="25.032,79.151 36.111,85.972 36.111,73.586    24.823,66.921  " data-fill-palette-color="accent"></polygon><polygon fill-rule="evenodd" clip-rule="evenodd" fill="#111010" points="39.272,75.453 39.231,87.894 50.773,95 61.546,87.604    61.916,75.42 51.24,82.521  " data-fill-palette-color="accent"></polygon><polygon fill-rule="evenodd" clip-rule="evenodd" fill="#111010" points="64.348,85.681 74.96,78.396 75.54,66.356 64.889,73.443     " data-fill-palette-color="accent"></polygon><polygon fill-rule="evenodd" clip-rule="evenodd" fill="#111010" points="77.918,76.367 87.584,69.732 88.459,57.762    78.627,64.303  " data-fill-palette-color="accent"></polygon><polygon fill-rule="evenodd" clip-rule="evenodd" fill="#111010" points="78.852,60.499 88.521,54.133 89.666,41.252    79.608,47.603  " data-fill-palette-color="accent"></polygon><polygon fill-rule="evenodd" clip-rule="evenodd" fill="#111010" points="65.058,69.579 75.723,62.558 76.343,49.666    65.638,56.427  " data-fill-palette-color="accent"></polygon><polygon fill-rule="evenodd" clip-rule="evenodd" fill="#111010" points="54.177,33.416 66.371,39.784 65.774,53.316    76.489,46.621 77.133,33.233 64.952,27.187  " data-fill-palette-color="accent"></polygon><polygon fill-rule="evenodd" clip-rule="evenodd" fill="#111010" points="39.096,25.54 50.96,31.736 61.599,25.522 49.789,19.66     " data-fill-palette-color="accent"></polygon><polygon fill-rule="evenodd" clip-rule="evenodd" fill="#111010" points="35.629,27.445 24.256,33.701 24.488,47.292    36.111,53.855 36.111,40.408 47.621,33.686  " data-fill-palette-color="accent"></polygon><polygon fill-rule="evenodd" clip-rule="evenodd" fill="#111010" points="24.76,63.177 36.111,69.904 36.111,56.86 24.539,50.236     " data-fill-palette-color="accent"></polygon><polygon fill-rule="evenodd" clip-rule="evenodd" fill="#111010" points="39.33,58.701 39.286,71.786 51.085,78.777 62.032,71.57    62.43,58.452 51.24,65.521  " data-fill-palette-color="accent"></polygon><polygon fill-rule="evenodd" clip-rule="evenodd" fill="#111010" points="39.386,41.968 39.34,55.679 51.24,62.4 62.525,55.349    62.939,41.655 50.826,35.354  " data-fill-palette-color="accent"></polygon></g></svg></g></svg></g><g></g></svg></g></svg></g></svg></g><g></g></svg></g><defs></defs></svg><rect width="395.52" height="247.2" fill="none" stroke="none" visibility="hidden"></rect></g></svg></g></svg>